<svg version="1.1" width="300.000000" height="300.000000" xmlns="http://www.w3.org/2000/svg">
<circle cx="150.000000" cy="0.000000" r="5.000000" fill="black" />
<circle cx="75.000000" cy="50.000000" r="5.000000" fill="black" />
<line x1="150.000000" y1="0.000000" x2="75.000000" y2="50.000000" stroke="black" />
<circle cx="25.000000" cy="100.000000" r="5.000000" fill="black" />
<line x1="75.000000" y1="50.000000" x2="25.000000" y2="100.000000" stroke="black" />
<circle cx="0.000000" cy="150.000000" r="5.000000" fill="black" />
<line x1="25.000000" y1="100.000000" x2="0.000000" y2="150.000000" stroke="black" />
<circle cx="50.000000" cy="150.000000" r="5.000000" fill="black" />
<line x1="25.000000" y1="100.000000" x2="50.000000" y2="150.000000" stroke="black" />
<circle cx="125.000000" cy="100.000000" r="5.000000" fill="black" />
<line x1="75.000000" y1="50.000000" x2="125.000000" y2="100.000000" stroke="black" />
<circle cx="100.000000" cy="150.000000" r="5.000000" fill="black" />
<line x1="125.000000" y1="100.000000" x2="100.000000" y2="150.000000" stroke="black" />
<circle cx="300.000000" cy="50.000000" r="5.000000" fill="black" />
<line x1="150.000000" y1="0.000000" x2="300.000000" y2="50.000000" stroke="black" />
<circle cx="200.000000" cy="100.000000" r="5.000000" fill="black" />
<line x1="300.000000" y1="50.000000" x2="200.000000" y2="100.000000" stroke="black" />
<circle cx="175.000000" cy="150.000000" r="5.000000" fill="black" />
<line x1="200.000000" y1="100.000000" x2="175.000000" y2="150.000000" stroke="black" />
<circle cx="250.000000" cy="150.000000" r="5.000000" fill="black" />
<line x1="200.000000" y1="100.000000" x2="250.000000" y2="150.000000" stroke="black" />
<circle cx="225.000000" cy="200.000000" r="5.000000" fill="black" />
<line x1="250.000000" y1="150.000000" x2="225.000000" y2="200.000000" stroke="black" />
<circle cx="275.000000" cy="200.000000" r="5.000000" fill="black" />
<line x1="250.000000" y1="150.000000" x2="275.000000" y2="200.000000" stroke="black" />
<circle cx="325.000000" cy="100.000000" r="5.000000" fill="black" />
<line x1="300.000000" y1="50.000000" x2="325.000000" y2="100.000000" stroke="black" />
</svg>